<svg width="32" height="32" viewBox="0 0 32 32" fill="none" xmlns="http://www.w3.org/2000/svg">
<path d="M14.6856 2.70636C13.8085 2.87511 13.0633 3.46261 12.6849 4.26886C12.3983 4.88761 12.3926 5.00011 12.3926 8.89386L12.3926 12.5376L13.4302 13.1064C14.0035 13.4126 14.4735 13.6626 14.485 13.6501C14.4907 13.6376 14.7602 13.0626 15.0812 12.3751C15.6946 11.0376 15.9526 10.6501 16.4513 10.2876C17.1335 9.79386 18.1252 9.71261 18.8877 10.0876C19.9081 10.5939 20.5158 11.7564 20.3954 12.9814C20.3552 13.3501 20.2349 13.6564 19.3234 15.6939C18.3087 17.9626 18.2972 18.0001 18.2972 18.4064C18.2972 18.6314 18.2628 18.9939 18.2227 19.2064L18.1482 19.5939L18.7558 19.6126L19.3692 19.6314L17.7755 24.4126C16.8927 27.0439 16.1475 29.3064 16.1131 29.4376C15.878 30.3689 16.9156 31.0439 17.5233 30.3501C17.6494 30.2064 18.045 29.0876 19.4437 24.9001L21.1979 19.6314L21.5132 19.6126L21.8228 19.6001L23.5369 24.7064C24.4828 27.5189 25.3025 29.9314 25.3656 30.0626C25.5032 30.3751 25.6579 30.5189 25.9446 30.6064C26.2427 30.6939 26.6096 30.5439 26.8217 30.2439C27.1083 29.8314 27.1312 29.9001 25.314 24.5251L23.6458 19.6064L26.0879 19.5814C28.7364 19.5564 28.7249 19.5626 29.3211 19.1939C29.8887 18.8439 30.3874 18.1439 30.5708 17.4439C30.6912 16.9814 30.6912 5.28136 30.5708 4.81886C30.3301 3.90011 29.6651 3.14386 28.788 2.80011C28.5529 2.70636 27.8478 2.69386 21.6795 2.68761C17.9131 2.68136 14.7659 2.69386 14.6856 2.70636ZM26.3229 6.70636C26.5981 6.76261 26.9306 7.15011 26.9822 7.47511C27.0338 7.81886 26.8389 8.25636 26.5522 8.41886C26.3631 8.53136 26.128 8.53761 21.5476 8.53761C16.2965 8.53761 16.4857 8.55011 16.2392 8.16886C15.901 7.65636 16.1303 6.90636 16.6691 6.72511C16.8641 6.66261 26.042 6.64386 26.3229 6.70636ZM26.5981 10.3501C26.793 10.4814 27.0109 10.8939 27.0109 11.1314C27.0109 11.3689 26.793 11.7814 26.5981 11.9126C26.4147 12.0314 26.3115 12.0376 24.2133 12.0376C22.2184 12.0376 21.9948 12.0251 21.84 11.9251C21.3126 11.5876 21.3069 10.7189 21.8285 10.3439C21.9833 10.2314 22.1266 10.2251 24.2019 10.2251C26.3172 10.2251 26.4147 10.2314 26.5981 10.3501ZM26.5522 13.8439C26.8331 14.0064 27.0338 14.4439 26.9822 14.7751C26.9363 15.1001 26.6612 15.4564 26.3917 15.5376C26.2656 15.5751 25.3713 15.6001 24.1732 15.6001C22.2012 15.6001 22.1553 15.6001 21.9088 15.4564C21.5935 15.2876 21.4387 15.0126 21.4387 14.6251C21.4387 14.2939 21.5534 14.0876 21.8515 13.8626C22.0406 13.7251 22.0521 13.7251 24.1961 13.7251C26.1911 13.7251 26.3688 13.7314 26.5522 13.8439Z" fill="#94A3B8"/>
<path d="M6.14388 4.598C5.08907 4.8105 4.04572 5.61675 3.54698 6.598C3.18582 7.31675 3.0769 7.77925 3.08264 8.62925C3.08264 9.2855 3.09983 9.44175 3.24315 9.87925C3.58711 10.9667 4.24063 11.7855 5.1292 12.248C5.65087 12.5167 6.04069 12.6542 6.35598 12.6667C6.44197 12.673 6.31012 12.7105 6.06362 12.7605C3.80495 13.173 2.09089 14.823 1.51762 17.1417C1.36857 17.7355 1.36284 17.823 1.33991 19.8105C1.32271 21.5355 1.33417 21.9355 1.41443 22.3167C1.58068 23.148 2.08515 23.8605 2.76734 24.2542L3.15716 24.4792L3.17436 27.2542C3.19156 29.9417 3.19729 30.0292 3.31194 30.198C3.375 30.2917 3.50112 30.4292 3.58711 30.498C3.74189 30.623 3.81642 30.6292 6.70568 30.648L9.66946 30.6667L9.92743 30.523C10.0765 30.4355 10.2313 30.2917 10.3001 30.1605C10.4147 29.948 10.4147 29.8292 10.4319 24.5792C10.4376 21.6355 10.4606 19.223 10.472 19.223C10.4892 19.223 11.1026 19.548 11.8364 19.948C13.453 20.8355 13.6651 20.9167 14.2269 20.9167C14.9091 20.9105 15.4193 20.6792 15.8894 20.1605C16.4397 19.5667 16.7034 18.6167 16.52 17.923C16.4684 17.723 16.5372 17.5605 17.5805 15.2792C18.7787 12.673 18.8073 12.5792 18.5837 12.173C18.4232 11.8917 18.1481 11.723 17.8328 11.723C17.3226 11.723 17.2824 11.7792 16.2334 14.048C15.7117 15.1667 15.2703 16.1042 15.2531 16.1292C15.2359 16.148 13.946 15.473 12.3867 14.6292C9.19365 12.9042 8.92995 12.798 7.86367 12.7355L7.20442 12.7042L7.62863 12.5855C9.3599 12.123 10.5122 10.5417 10.5179 8.62925C10.5236 7.9105 10.4376 7.51675 10.1223 6.8105C9.69239 5.823 8.86116 5.048 7.89234 4.723C7.44519 4.573 6.56236 4.5105 6.14388 4.598Z" fill="#94A3B8"/>
</svg>
