<svg width="24" height="24" viewBox="0 0 24 24" fill="none" xmlns="http://www.w3.org/2000/svg">
<path d="M11.1403 1.04899C9.18948 1.28961 7.47502 2.17906 6.23323 3.59703C4.58323 5.47906 3.92581 7.99703 4.44573 10.4119C4.67776 11.4861 5.21487 12.6505 5.8637 13.4712C5.98831 13.6259 6.22893 13.931 6.39651 14.1416C6.88206 14.756 7.30315 15.6755 7.38479 16.2857L7.41487 16.5134H8.41604H9.42151V13.6087L9.42151 10.7041L9.53323 10.4205C9.59768 10.2615 10.0489 9.32047 10.5387 8.32789C11.1617 7.06031 11.4711 6.48453 11.5656 6.3943C11.6903 6.27828 11.7289 6.26539 11.9996 6.26539C12.2703 6.26539 12.309 6.27828 12.4336 6.3943C12.5281 6.48453 12.8332 7.06031 13.4606 8.32789C13.9504 9.32047 14.4016 10.2615 14.466 10.4205L14.5778 10.7041L14.5778 13.6087V16.5134H15.5832H16.5844L16.6102 16.3287C16.6489 16.0666 16.8379 15.4693 17.0055 15.1084C17.1817 14.7302 17.4824 14.2791 17.8906 13.7763C19.2742 12.0919 19.9102 10.0252 19.6867 7.97125C19.3086 4.45641 16.752 1.72789 13.2672 1.10914C12.8031 1.0275 11.5914 0.993129 11.1403 1.04899Z" fill="#94A3B8"/>
<path d="M1.6677 4.50444C1.2552 4.65053 1.1177 5.13178 1.37981 5.50131C1.50442 5.67748 2.38098 6.52396 2.50129 6.58842C2.65598 6.66576 2.94817 6.65717 3.11145 6.56264C3.40793 6.38647 3.51106 5.96967 3.32629 5.67318C3.27903 5.59584 3.01262 5.30795 2.72903 5.03295C2.3466 4.65912 2.17903 4.52162 2.05012 4.48725C1.84817 4.43139 1.87824 4.43139 1.6677 4.50444Z" fill="#94A3B8"/>
<path d="M21.9291 4.48725C21.7701 4.53451 20.8291 5.42397 20.6744 5.67318C20.4896 5.96967 20.5927 6.38647 20.8892 6.56264C21.0525 6.65717 21.3447 6.66576 21.4994 6.58842C21.6412 6.51107 22.5564 5.60873 22.6638 5.43686C22.9689 4.94701 22.4876 4.32826 21.9291 4.48725Z" fill="#94A3B8"/>
<path d="M11.4715 9.36001C11.1965 9.91431 10.9688 10.387 10.9688 10.4084C10.9688 10.4987 11.5145 10.6018 12 10.6018C12.4855 10.6018 13.0312 10.4987 13.0312 10.4084C13.0312 10.3526 12.0258 8.35025 12 8.35025C11.9871 8.35025 11.7508 8.80571 11.4715 9.36001Z" fill="#94A3B8"/>
<path d="M1.33516 8.86929C1.15039 8.96382 1 9.21733 1 9.42358C1 9.63843 1.15039 9.88335 1.34375 9.98218C1.49414 10.0595 1.59727 10.0681 2.28906 10.0681C3.19141 10.0681 3.3375 10.0251 3.49219 9.72437C3.59961 9.50952 3.59961 9.33765 3.49219 9.1228C3.3375 8.81773 3.1957 8.77905 2.28047 8.77905C1.58438 8.78335 1.47695 8.79194 1.33516 8.86929Z" fill="#94A3B8"/>
<path d="M20.757 8.86929C20.5723 8.96382 20.4219 9.21733 20.4219 9.42358C20.4219 9.63843 20.5723 9.88335 20.7656 9.98218C20.916 10.0595 21.0191 10.0681 21.7109 10.0681C22.4027 10.0681 22.5059 10.0595 22.6562 9.98218C22.8496 9.88335 23 9.63843 23 9.42358C23 9.20874 22.8496 8.96382 22.6562 8.86499C22.5059 8.78765 22.407 8.77905 21.7023 8.77905C21.0063 8.78335 20.8988 8.79194 20.757 8.86929Z" fill="#94A3B8"/>
<path d="M10.7109 14.1244V16.5134H12H13.2891V14.1244L13.2891 11.7353L13.1945 11.7611C12.782 11.8771 12.434 11.9244 12 11.9244C11.566 11.9244 11.218 11.8771 10.8098 11.7611L10.7109 11.7353L10.7109 14.1244Z" fill="#94A3B8"/>
<path d="M2.59312 12.2216C2.43413 12.2689 1.49312 13.1583 1.33843 13.4076C1.15366 13.704 1.25679 14.1208 1.55327 14.297C1.71655 14.3915 2.00874 14.4001 2.16343 14.3228C2.30523 14.2454 3.22046 13.3431 3.32788 13.1712C3.63296 12.6814 3.15171 12.0626 2.59312 12.2216Z" fill="#94A3B8"/>
<path d="M21.0036 12.2388C20.5911 12.3849 20.4536 12.8662 20.7157 13.2357C20.8404 13.4119 21.7169 14.2583 21.8372 14.3228C21.9919 14.4001 22.2841 14.3915 22.4474 14.297C22.7439 14.1208 22.847 13.704 22.6622 13.4076C22.615 13.3302 22.3486 13.0423 22.065 12.7673C21.6825 12.3935 21.515 12.256 21.3861 12.2216C21.1841 12.1658 21.2142 12.1658 21.0036 12.2388Z" fill="#94A3B8"/>
<path d="M7.48828 18.185C7.48828 18.3912 7.50977 18.6662 7.53125 18.7951C7.67734 19.5686 8.30039 20.1916 9.07383 20.3377C9.3832 20.3979 14.6168 20.3979 14.9262 20.3377C15.6996 20.1916 16.3227 19.5686 16.4688 18.7951C16.4902 18.6662 16.5117 18.3912 16.5117 18.185V17.8025L12 17.8025H7.48828V18.185Z" fill="#94A3B8"/>
<path d="M8.92205 21.7432C8.93924 21.7861 9.01228 21.9236 9.08963 22.0525C9.34744 22.4822 9.84158 22.8432 10.3271 22.9549C10.5763 23.015 13.4209 23.015 13.6701 22.9549C14.1556 22.8432 14.6498 22.4822 14.9076 22.0525C14.9849 21.9236 15.058 21.7861 15.0752 21.7432C15.101 21.6744 14.9377 21.6701 11.9986 21.6701C9.05955 21.6701 8.89627 21.6744 8.92205 21.7432Z" fill="#94A3B8"/>
</svg>
